<svg xmlns="http://www.w3.org/2000/svg">
<symbol id="svg-soten_logo" viewBox="0 0 150.084 100.024"><polygon class="cls-1" points="144.814 64.597 137.133 64.597 115.301 42.371 115.301 32.904 115.301 32.903 134.59 32.904 139.86 27.634 115.301 27.634 115.301 7.691 139.077 7.691 144.623 2.421 83.246 2.421 77.7 7.691 107.022 7.691 107.022 27.634 87.733 27.634 82.463 32.904 107.022 32.904 107.022 42.371 85.19 64.597 77.51 64.597 72.24 69.867 88.653 69.867 111.162 47.303 133.67 69.867 150.084 69.867 144.814 64.597"/><path class="cls-1" d="M72.165,59.587l-4.427-4.426H27.021L22.6,59.587V65.44l4.426,4.427H67.738l4.427-4.427ZM63.844,64.6H30.915V60.431H63.844Z"/><polygon class="cls-1" points="33.524 20.061 28.254 25.33 61.453 25.33 56.183 20.061 33.524 20.061"/><polygon class="cls-1" points="30.49 10.112 38.811 10.112 38.811 7.691 50.895 7.691 50.895 10.112 59.216 10.112 59.216 7.691 72.769 7.691 78.315 2.421 59.216 2.421 59.216 0 50.895 0 50.895 2.421 38.811 2.421 38.811 0 30.49 0 30.49 2.421 16.938 2.421 11.392 7.691 30.49 7.691 30.49 10.112"/><polygon class="cls-1" points="31.247 17.016 58.51 17.016 69.617 28.142 78.362 28.167 62.312 11.746 27.445 11.746 6.93 32.652 15.675 32.627 31.247 17.016"/><path class="cls-1" d="M63.3,52.343l4.426-4.427V32.628L63.3,28.2H26.074l-4.427,4.426V47.862l.025.025L0,69.9l8.745-.025,17.5-17.529ZM29.968,33.471H59.4v4.167H29.968Zm0,9.436H59.4v4.166H29.968Z"/><polygon class="cls-1" points="70.004 86.245 74.129 86.245 74.129 100.009 77.775 100.008 77.775 86.245 81.961 86.245 81.961 83.404 70.004 83.404 70.004 86.245"/><polygon class="cls-1" points="92.795 83.395 92.795 86.253 92.795 90.158 92.795 93.016 92.795 97.165 92.795 100.008 92.795 100.024 103.272 100.024 103.272 97.165 96.407 97.165 96.407 93.016 102.232 93.016 102.232 90.158 96.407 90.158 96.407 86.253 103.272 86.253 103.272 83.395 96.407 83.395 92.795 83.395"/><polygon class="cls-1" points="123.566 93.852 117.74 83.395 114.176 83.395 114.176 100.008 117.74 100.008 117.74 89.79 123.433 100.008 123.566 100.008 126.997 100.008 127.13 100.008 127.13 83.395 123.566 83.395 123.566 93.852"/><path class="cls-1" d="M54.44,83.4H51.412a4.669,4.669,0,0,0-3.3,1.081,4.05,4.05,0,0,0-1.162,3.117v8.162a4.049,4.049,0,0,0,1.162,3.116,4.664,4.664,0,0,0,3.3,1.081H54.44a4.666,4.666,0,0,0,3.3-1.081A4.049,4.049,0,0,0,58.9,95.755V87.593a4.05,4.05,0,0,0-1.162-3.117A4.67,4.67,0,0,0,54.44,83.4Zm1.027,12.2a1.561,1.561,0,0,1-.365,1.171,1.751,1.751,0,0,1-1.23.348h-1.92a1.7,1.7,0,0,1-1.216-.348,1.6,1.6,0,0,1-.351-1.171V87.745a1.608,1.608,0,0,1,.351-1.171,1.712,1.712,0,0,1,1.216-.348h1.92a1.765,1.765,0,0,1,1.23.348,1.569,1.569,0,0,1,.365,1.171Z"/><path class="cls-1" d="M33.374,90.939a14.384,14.384,0,0,0-4.083-.876q-2.217-.178-2.217-1.389v-.49a2.267,2.267,0,0,1,.392-1.558,2.114,2.114,0,0,1,1.5-.4h1.055a2.277,2.277,0,0,1,1.486.363,1.784,1.784,0,0,1,.406,1.364v.687h.54c.012,0,.016.009.028.009h2.3c.012,0,.015-.009.027-.009h.541V87.618a4.053,4.053,0,0,0-1.19-3.116A4.7,4.7,0,0,0,30.832,83.4h-2.7a4.653,4.653,0,0,0-3.3,1.107,4.048,4.048,0,0,0-1.189,3.116v.9a4.855,4.855,0,0,0,.635,2.613A3.151,3.151,0,0,0,25.857,92.5a13.969,13.969,0,0,0,2.041.566,17.353,17.353,0,0,0,2.042.3,3.488,3.488,0,0,1,1.582.478,1.276,1.276,0,0,1,.635,1.144v.31a1.933,1.933,0,0,1-.419,1.442,2.175,2.175,0,0,1-1.473.386H28.994a2.285,2.285,0,0,1-1.487-.36,1.746,1.746,0,0,1-.406-1.34v-.745H23.667V95.73a4.045,4.045,0,0,0,1.191,3.116,4.656,4.656,0,0,0,3.3,1.106H31.1a4.657,4.657,0,0,0,3.3-1.106,4.048,4.048,0,0,0,1.19-3.116v-.876a4.631,4.631,0,0,0-.635-2.536A3.415,3.415,0,0,0,33.374,90.939Z"/></symbol>
</svg>