<svg xmlns="http://www.w3.org/2000/svg" width="81.406" height="27.124" viewBox="0 0 81.406 27.124">
  <path fill="#c1c4cb" d="M108.685,957.7a9.842,9.842,0,0,0,3.167,2.2,9.738,9.738,0,0,0,3.973.8h7.936v-3.578h-7.823a6.942,6.942,0,0,1-2.672-.509,5.821,5.821,0,0,1-1.947-1.395,6.368,6.368,0,0,1-1.329-2.128,7.334,7.334,0,0,1-.481-2.678,7.2,7.2,0,0,1,.481-2.677,6.255,6.255,0,0,1,1.329-2.085,5.734,5.734,0,0,1,1.947-1.367,7.088,7.088,0,0,1,2.672-.5h4.767v-3.58h-4.88a10.745,10.745,0,0,0-3.973.72,9.417,9.417,0,0,0-3.167,2.029,9.117,9.117,0,0,0-2.093,3.171,10.91,10.91,0,0,0-.75,4.115,11.263,11.263,0,0,0,.75,4.143A9.917,9.917,0,0,0,108.685,957.7Zm16.806-7.552a5.668,5.668,0,0,0,1.98,1.21,8.055,8.055,0,0,0,2.729.475h5.9a4.661,4.661,0,0,1,2.634.624,2.469,2.469,0,0,1,.778,1.989,2.544,2.544,0,0,1-.778,1.944,4.2,4.2,0,0,1-2.6.734h-9.056V960.7h9.433a7.985,7.985,0,0,0,2.813-.451A5.386,5.386,0,0,0,141.322,959a5.151,5.151,0,0,0,1.188-1.9,7.013,7.013,0,0,0,.358-2.4,5.714,5.714,0,0,0-1.664-4.454,6.7,6.7,0,0,0-4.689-1.465h-5.759a3.829,3.829,0,0,1-2.295-.648,2.387,2.387,0,0,1-.693-1.833,2.446,2.446,0,0,1,.641-1.846,2.64,2.64,0,0,1,1.923-.663h8.945v-3.58h-8.87a8.285,8.285,0,0,0-2.79.438,5.763,5.763,0,0,0-1.993,1.2,4.811,4.811,0,0,0-1.179,1.818,6.3,6.3,0,0,0-.41,2.3,6.107,6.107,0,0,0,.363,2.34A5,5,0,0,0,125.491,950.148Zm23.52,6.937V940.21h-3.592V960.7h15.817v-3.617H149.011Zm-53.792-16a2.808,2.808,0,0,0-.722-0.847,1.618,1.618,0,0,0-1-.309,1.683,1.683,0,0,0-1.019.309,2.71,2.71,0,0,0-.735.847l-11.9,19.691h4.1l9.445-15.8,4.581,7.668H91.627l-1.7,2.9h9.728l6.887,11.521h54.691V963.45H108.71Z" transform="translate(-79.844 -939.938)"/>
</svg>
